<svg height="426pt" viewBox="-5 0 426 426.16831" width="426pt" xmlns="http://www.w3.org/2000/svg"><path d="m307.285156 153.601562c0 84.828126-68.769531 153.597657-153.601562 153.597657-84.832032 0-153.5976565-68.769531-153.5976565-153.597657 0-84.832031 68.7656245-153.601562 153.5976565-153.601562 84.832031 0 153.601562 68.769531 153.601562 153.601562zm0 0" fill="#d9be6f"/><path d="m409.683594 152.667969c0-39.074219-30.007813-70.75-67.023438-70.75-37.019531 0-67.027344 31.675781-67.027344 70.75s30.007813 70.75 67.027344 70.75c37.015625 0 67.023438-31.675781 67.023438-70.75zm0 0" fill="#fc8c29"/><path d="m342.660156 230.242188c-40.722656 0-73.855468-34.800782-73.855468-77.574219 0-42.773438 33.132812-77.574219 73.855468-77.574219 40.71875 0 73.851563 34.796875 73.851563 77.574219 0 42.773437-33.132813 77.574219-73.851563 77.574219zm0-141.496094c-33.195312 0-60.203125 28.675781-60.203125 63.921875 0 35.246093 27.007813 63.921875 60.203125 63.921875 33.191406 0 60.199219-28.675782 60.199219-63.921875 0-35.246094-27.007813-63.921875-60.199219-63.921875zm0 0" fill="#4c241d"/><path d="m383.632812 152.667969c0-23.886719-18.34375-43.25-40.972656-43.25-22.632812 0-40.976562 19.363281-40.976562 43.25s18.34375 43.25 40.976562 43.25c22.628906 0 40.972656-19.363281 40.972656-43.25zm0 0" fill="#edebdc"/><path d="m342.660156 202.746094c-26.363281 0-47.800781-22.464844-47.800781-50.078125s21.4375-50.078125 47.800781-50.078125c26.359375 0 47.796875 22.464844 47.796875 50.078125s-21.4375 50.078125-47.796875 50.078125zm0-86.5c-18.828125 0-34.148437 16.339844-34.148437 36.421875 0 20.085937 15.320312 36.425781 34.148437 36.425781 18.824219 0 34.144532-16.339844 34.144532-36.425781 0-20.082031-15.320313-36.421875-34.144532-36.421875zm0 0" fill="#4c241d"/><path d="m191.207031 398.472656 31.65625 15.078125c14.683594 6.992188 31.585938 7.71875 46.816407 2.003907l35.746093-13.402344c-40.15625-42.421875-78.191406-42.855469-114.21875-3.679688zm0 0" fill="#edebdc"/><path d="m248.671875 426.167969c-9.875 0-19.730469-2.164063-28.742187-6.457031l-31.660157-15.074219c-1.960937-.929688-3.351562-2.738281-3.765625-4.867188-.414062-2.128906.207032-4.324219 1.671875-5.917969 18.78125-20.417968 38.53125-30.839843 58.71875-30.984374.140625-.003907.289063-.003907.425781-.003907 21.441407 0 43.328126 11.636719 65.0625 34.59375 1.574219 1.664063 2.207032 4.003907 1.691407 6.230469-.519531 2.230469-2.113281 4.054688-4.253907 4.859375l-35.746093 13.402344c-7.523438 2.820312-15.46875 4.21875-23.402344 4.21875zm-45.867187-29.730469 22.992187 10.949219c12.941406 6.15625 28.066406 6.820312 41.480469 1.777343l25.78125-9.664062c-16.449219-15.257812-32.472656-22.980469-47.742188-22.980469-.105468 0-.214844 0-.320312.003907-14.046875.097656-28.203125 6.789062-42.191406 19.914062zm0 0" fill="#4c241d"/><path d="m216.054688 152.667969c0-39.074219-30.007813-70.75-67.023438-70.75-37.019531 0-67.027344 31.675781-67.027344 70.75s30.007813 70.75 67.027344 70.75c37.015625 0 67.023438-31.675781 67.023438-70.75zm0 0" fill="#fc8c29"/><path d="m149.03125 230.242188c-40.71875 0-73.855469-34.800782-73.855469-77.574219 0-42.773438 33.136719-77.574219 73.855469-77.574219s73.851562 34.800781 73.851562 77.574219c0 42.773437-33.132812 77.574219-73.851562 77.574219zm0-141.496094c-33.195312 0-60.199219 28.675781-60.199219 63.921875 0 35.25 27.003907 63.921875 60.199219 63.921875 33.191406 0 60.199219-28.675782 60.199219-63.921875 0-35.246094-27.003907-63.921875-60.199219-63.921875zm0 0" fill="#4c241d"/><path d="m89.453125 293.46875v23.039062c0 47.300782 38.34375 85.644532 85.644531 85.644532 29.402344 0 55.324219-14.828125 70.75-37.402344 15.417969 22.574219 41.34375 37.402344 70.75 37.402344 47.296875 0 85.640625-38.34375 85.640625-85.644532 0-1.011718 0-11.042968 0-23.039062-39.339843 25.648438-94.835937 41.660156-156.390625 41.660156-61.554687 0-117.054687-16.011718-156.394531-41.660156zm0 0" fill="#edebdc"/><path d="m316.589844 408.980469c-27.433594 0-53.253906-12.171875-70.746094-32.957031-17.492188 20.785156-43.3125 32.957031-70.746094 32.957031-50.988281 0-92.472656-41.484375-92.472656-92.472657v-23.039062c0-2.507812 1.371094-4.808594 3.574219-6.003906 2.203125-1.195313 4.882812-1.085938 6.976562.28125 40.117188 26.152344 94.328125 40.550781 152.667969 40.550781s112.554688-14.398437 152.667969-40.550781c2.09375-1.367188 4.765625-1.476563 6.980469-.28125 2.199218 1.191406 3.574218 3.496094 3.574218 6.003906v23.039062c0 50.988282-41.488281 92.472657-92.476562 92.472657zm-70.746094-51.058594c2.253906 0 4.367188 1.113281 5.640625 2.976563 14.71875 21.558593 39.0625 34.425781 65.105469 34.425781 43.460937 0 78.820312-35.355469 78.820312-78.816407v-10.871093c-40.980468 23.488281-93.542968 36.3125-149.566406 36.3125-56.019531 0-108.585938-12.824219-149.566406-36.3125v10.871093c0 43.460938 35.359375 78.816407 78.820312 78.816407 26.046875 0 50.386719-12.867188 65.105469-34.425781 1.273437-1.863282 3.386719-2.976563 5.640625-2.976563zm0 0" fill="#4c241d"/><path d="m190.003906 152.667969c0-23.886719-18.34375-43.25-40.972656-43.25s-40.976562 19.363281-40.976562 43.25 18.347656 43.25 40.976562 43.25 40.972656-19.363281 40.972656-43.25zm0 0" fill="#edebdc"/><path d="m149.03125 202.746094c-26.359375 0-47.800781-22.464844-47.800781-50.078125s21.4375-50.078125 47.800781-50.078125c26.359375 0 47.800781 22.464844 47.800781 50.078125s-21.441406 50.078125-47.800781 50.078125zm0-86.5c-18.828125 0-34.148438 16.339844-34.148438 36.421875 0 20.085937 15.320313 36.425781 34.148438 36.425781 18.824219 0 34.144531-16.339844 34.144531-36.425781 0-20.082031-15.316406-36.421875-34.144531-36.421875zm0 0" fill="#4c241d"/><path d="m245.84375 104.261719c-86.371094 0-156.390625 65.015625-156.390625 145.21875v43.988281c39.339844 25.644531 94.835937 41.65625 156.390625 41.65625s117.050781-16.007812 156.390625-41.65625c0-19.410156 0-43.988281 0-43.988281 0-80.203125-70.015625-145.21875-156.390625-145.21875zm0 0" fill="#fc8c29"/><path d="m245.84375 341.953125c-60.953125 0-117.820312-15.1875-160.117188-42.765625-1.933593-1.257812-3.101562-3.410156-3.101562-5.71875v-43.988281c0-83.839844 73.21875-152.046875 163.222656-152.046875 90 0 163.21875 68.207031 163.21875 152.046875v43.988281c0 2.308594-1.167968 4.457031-3.097656 5.71875-42.304688 27.578125-99.171875 42.765625-160.125 42.765625zm-149.566406-52.222656c39.78125 24.894531 92.71875 38.570312 149.566406 38.570312s109.785156-13.675781 149.566406-38.570312v-40.25c0-76.308594-67.089844-138.390625-149.566406-138.390625-82.472656 0-149.566406 62.082031-149.566406 138.390625zm305.960937 3.738281h.066407zm0 0" fill="#4c241d"/><path d="m149.03125 260.652344c-22.5625-18.046875-34.175781-55.210938-39.835938-81.71875-12.539062 20.898437-19.742187 44.929687-19.742187 70.546875v43.988281c16.753906 10.921875 36.570313 19.957031 58.40625 26.890625-26.652344-24.695313-50.960937-67.15625-50.960937-67.15625 14.894531 14.898437 52.132812 7.449219 52.132812 7.449219zm0 0" fill="#6b4f5b"/><path d="m147.859375 327.183594c-.6875 0-1.386719-.101563-2.070313-.320313-22.789062-7.234375-42.996093-16.546875-60.0625-27.675781-1.933593-1.261719-3.101562-3.414062-3.101562-5.722656v-43.984375c0-25.863281 7.167969-51.472657 20.722656-74.0625 1.445313-2.402344 4.238282-3.675781 6.972656-3.21875 2.765626.460937 4.972657 2.566406 5.550782 5.304687 5.628906 26.34375 16.6875 61.222656 37.429687 77.816406 2.066407 1.65625 2.992188 4.367188 2.367188 6.941407-.628907 2.582031-2.695313 4.5625-5.292969 5.082031-2.746094.554688-19.808594 3.714844-35.96875.945312 9.40625 14.164063 23.472656 33.515626 38.09375 47.0625 2.347656 2.171876 2.867188 5.679688 1.257812 8.441407-1.246093 2.144531-3.519531 3.390625-5.898437 3.390625zm-51.582031-37.457032c8.328125 5.1875 17.425781 9.949219 27.234375 14.238282-11.699219-14.421875-21.527344-29.394532-27.234375-38.558594zm.621094-43.347656c1.753906 0 3.507812.675782 4.828124 2 6.710938 6.71875 21.070313 7.722656 32.476563 7.140625-13.039063-15.664062-21.652344-37.242187-27.269531-57.242187-6.59375 15.296875-10.214844 31.632812-10.617188 48.125.195313-.015625.386719-.023438.582032-.023438zm0 0" fill="#4c241d"/><path d="m342.660156 260.652344s37.234375 7.449218 52.128906-7.445313c0 0-24.308593 42.457031-50.957031 67.152344 21.832031-6.933594 41.648438-15.96875 58.402344-26.890625 0-19.410156 0-43.984375 0-43.984375 0-25.621094-7.203125-49.652344-19.742187-70.550781-5.660157 26.507812-17.273438 63.671875-39.832032 81.71875zm0 0" fill="#6b4f5b"/><g fill="#4c241d"><path d="m343.832031 327.183594c-2.382812 0-4.65625-1.246094-5.902343-3.386719-1.605469-2.765625-1.085938-6.273437 1.261718-8.445313 14.632813-13.558593 28.699219-32.90625 38.097656-47.0625-16.144531 2.757813-33.21875-.390624-35.972656-.941406-2.597656-.523437-4.664062-2.503906-5.292968-5.082031-.628907-2.578125.300781-5.289063 2.367187-6.941406 20.738281-16.59375 31.800781-51.476563 37.425781-77.820313.582032-2.738281 2.789063-4.84375 5.554688-5.304687 2.726562-.472657 5.527344.8125 6.972656 3.21875 13.554688 22.589843 20.722656 48.203125 20.722656 74.0625v43.988281c0 2.308594-1.167968 4.457031-3.101562 5.71875-17.066406 11.128906-37.273438 20.441406-60.066406 27.679688-.679688.214843-1.382813.316406-2.066407.316406zm51.578125-61.777344c-5.707031 9.164062-15.53125 24.136719-27.230468 38.558594 9.804687-4.289063 18.90625-9.050782 27.230468-14.238282zm-37.957031-9.851562c11.457031.632812 25.726563-.390626 32.511719-7.175782 1.464844-1.46875 3.449218-2.152344 5.40625-1.976562-.398438-16.492188-4.019532-32.828125-10.613282-48.125-5.625 20.015625-14.246093 41.609375-27.304687 57.277344zm0 0"/><path d="m297.976562 178.117188c-.785156 0-1.578124-.136719-2.359374-.425782-34.300782-12.625-66.824219-12.636718-99.449219-.039062-3.5 1.367187-7.464844-.386719-8.824219-3.90625-1.359375-3.515625.386719-7.46875 3.90625-8.824219 35.847656-13.855469 71.53125-13.867187 109.085938-.039063 3.53125 1.300782 5.347656 5.222657 4.046874 8.761719-1.011718 2.761719-3.625 4.46875-6.40625 4.472657zm0 0"/><path d="m260.738281 140.875h-29.785156c-3.773437 0-6.828125-3.054688-6.828125-6.828125 0-3.769531 3.054688-6.824219 6.828125-6.824219h29.785156c3.773438 0 6.828125 3.054688 6.828125 6.824219 0 3.773437-3.054687 6.828125-6.828125 6.828125zm0 0"/><path d="m221.246094 200.457031c-3.09375 0-5.902344-2.121093-6.640625-5.265625-.863281-3.671875 1.410156-7.34375 5.085937-8.210937 15.292969-3.582031 31.804688-3.609375 51.925782-.074219 3.714843.652344 6.191406 4.1875 5.546874 7.902344-.660156 3.722656-4.199218 6.199218-7.90625 5.542968-18.269531-3.203124-33.023437-3.234374-46.449218-.074218-.523438.121094-1.042969.179687-1.5625.179687zm0 0"/><path d="m350.105469 350.019531c0 4.113281-3.332031 7.449219-7.445313 7.449219-4.117187 0-7.449218-3.335938-7.449218-7.449219s3.332031-7.445312 7.449218-7.445312c4.113282 0 7.445313 3.332031 7.445313 7.445312zm0 0"/><path d="m342.660156 372.363281c0 4.113281-3.335937 7.445313-7.449218 7.445313-4.113282 0-7.445313-3.332032-7.445313-7.445313s3.332031-7.449219 7.445313-7.449219c4.113281 0 7.449218 3.335938 7.449218 7.449219zm0 0"/><path d="m320.316406 357.46875c0 4.113281-3.332031 7.449219-7.445312 7.449219-4.113282 0-7.449219-3.335938-7.449219-7.449219s3.335937-7.449219 7.449219-7.449219c4.113281 0 7.445312 3.335938 7.445312 7.449219zm0 0"/><path d="m163.925781 350.019531c0 4.113281-3.335937 7.449219-7.449219 7.449219-4.113281 0-7.449218-3.335938-7.449218-7.449219s3.335937-7.445312 7.449218-7.445312c4.113282 0 7.449219 3.332031 7.449219 7.445312zm0 0"/><path d="m171.371094 372.363281c0 4.113281-3.332032 7.445313-7.445313 7.445313s-7.449219-3.332032-7.449219-7.445313 3.335938-7.449219 7.449219-7.449219 7.445313 3.335938 7.445313 7.449219zm0 0"/><path d="m193.714844 357.46875c0 4.113281-3.335938 7.449219-7.449219 7.449219s-7.449219-3.335938-7.449219-7.449219 3.335938-7.449219 7.449219-7.449219 7.449219 3.335938 7.449219 7.449219zm0 0"/><path d="m312.867188 268.101562c0 8.222657-6.667969 14.894532-14.894532 14.894532-8.222656 0-14.890625-6.671875-14.890625-14.894532 0-8.226562 6.667969-14.894531 14.890625-14.894531 8.226563 0 14.894532 6.667969 14.894532 14.894531zm0 0"/><path d="m208.609375 268.101562c0 8.222657-6.667969 14.894532-14.894531 14.894532-8.226563 0-14.894532-6.671875-14.894532-14.894532 0-8.226562 6.667969-14.894531 14.894532-14.894531 8.226562 0 14.894531 6.667969 14.894531 14.894531zm0 0"/></g><path d="m246.246094 260.652344c4.457031 0 8.675781 2.265625 11.480468 6.164062l18.433594 60.863282h-60.089844l17.933594-59.710938c2.746094-4.574219 7.332032-7.316406 12.242188-7.316406zm0 0" fill="#edebdc"/><path d="m276.15625 334.507812h-60.085938c-2.160156 0-4.183593-1.023437-5.480468-2.753906-1.285156-1.730468-1.679688-3.96875-1.058594-6.035156l17.933594-59.710938c.167968-.542968.394531-1.0625.6875-1.550781 4-6.65625 10.757812-10.628906 18.09375-10.628906 6.707031 0 12.910156 3.28125 17.027344 9.003906.433593.609375.765624 1.289063.984374 2.003907l18.433594 60.863281c.628906 2.070312.242188 4.3125-1.050781 6.046875-1.289063 1.738281-3.324219 2.761718-5.484375 2.761718zm-50.90625-13.65625h41.710938l-15.394532-50.816406c-3.164062-3.535156-8.5-3.148437-11.300781.824219zm0 0" fill="#4c241d"/><path d="m231.582031 363.351562-14.640625-16.738281c-8.996094-10.289062-1.691406-26.378906 11.972656-26.378906h38.347657c13.664062 0 20.96875 16.09375 11.972656 26.378906l-14.640625 16.738281c-8.738281 9.988282-24.273438 9.988282-33.011719 0zm0 0" fill="#e66353"/><path d="m248.089844 377.671875c-8.300782 0-16.1875-3.582031-21.648438-9.828125l-14.636718-16.738281c-5.949219-6.796875-7.328126-16.132813-3.59375-24.359375 3.738281-8.230469 11.667968-13.339844 20.707031-13.339844h38.339843c9.039063 0 16.964844 5.109375 20.707032 13.339844 3.734375 8.226562 2.351562 17.5625-3.59375 24.363281l-14.640625 16.734375c-5.460938 6.242188-13.347657 9.828125-21.640625 9.828125zm-19.171875-50.613281c-3.667969 0-6.761719 1.992187-8.273438 5.332031-1.515625 3.332031-.972656 6.96875 1.4375 9.722656l14.640625 16.742188c5.734375 6.558593 16.988282 6.5625 22.726563 0l14.640625-16.738281c2.414062-2.757813 2.953125-6.394532 1.441406-9.726563-1.515625-3.339844-4.609375-5.332031-8.273438-5.332031zm0 0" fill="#4c241d"/></svg>